# xmcd CD database file
#
# Track frame offsets:
#	182
#	13355
#	29615
#	42157
#	60707
#	79405
#	92335
#	107985
#	126320
#	141452
#	156595
#
# Disc length: 2293 seconds
#
# Revision: 3
# Processed by: cddbd v1.5.2PL0 Copyright (c) Steve Scherf et al.
# Submitted via: jetAudio 5
#
DISCID=a108f30b
DTITLE=Mark Collie - Tennessee Plates
DYEAR=1995
DGENRE=Country
TTITLE0=Steady As She Goes
TTITLE1=There's Just You
TTITLE2=Three Words, Two Hearts, One Night
TTITLE3=Lipstick Don't Lie
TTITLE4=We'll Never Say Goodbye
TTITLE5=Tennessee Plates
TTITLE6=Memories (Still Missing Her)
TTITLE7=Tunica Motel
TTITLE8=Spirit Of A Boy, Wisdom Of A Man
TTITLE9=Those Days Are Gone
TTITLE10=Chasin' A Dream Called Love
EXTD=
EXTT0=
EXTT1=
EXTT2=
EXTT3=
EXTT4=
EXTT5=
EXTT6=
EXTT7=
EXTT8=
EXTT9=
EXTT10=
PLAYORDER=
